<svg xmlns="http://www.w3.org/2000/svg" xmlns:xlink="http://www.w3.org/1999/xlink" width="1080" zoomAndPan="magnify" viewBox="0 0 810 809.999993" height="1080" preserveAspectRatio="xMidYMid meet" version="1.0"><defs><clipPath id="id1"><path d="M 243 285.707031 L 462 285.707031 L 462 446 L 243 446 Z M 243 285.707031 " clip-rule="nonzero"/></clipPath><clipPath id="id2"><path d="M 294 468.449219 L 349.742188 468.449219 L 349.742188 524.207031 L 294 524.207031 Z M 294 468.449219 " clip-rule="nonzero"/></clipPath><clipPath id="id3"><path d="M 464.375 468.449219 L 520.375 468.449219 L 520.375 524.207031 L 464.375 524.207031 Z M 464.375 468.449219 " clip-rule="nonzero"/></clipPath><clipPath id="id4"><path d="M 275.078125 340.875 L 566.980469 340.875 L 566.980469 485.285156 L 275.078125 485.285156 Z M 275.078125 340.875 " clip-rule="nonzero"/></clipPath></defs><g clip-path="url(#id1)"><path fill="rgb(0%, 0%, 0%)" d="M 255.195312 429.988281 L 255.195312 301.746094 C 255.195312 299.769531 256.964844 298.214844 258.976562 298.214844 L 445.28125 298.214844 C 447.289062 298.214844 448.957031 299.769531 448.957031 301.746094 L 448.957031 429.988281 C 448.957031 431.964844 447.289062 433.429688 445.28125 433.429688 L 258.976562 433.429688 C 256.964844 433.429688 255.195312 431.964844 255.195312 429.988281 Z M 461.128906 429.988281 L 461.128906 301.746094 C 461.128906 292.980469 454.082031 285.707031 445.28125 285.707031 L 258.976562 285.707031 C 250.175781 285.707031 243.019531 292.980469 243.019531 301.746094 L 243.019531 429.988281 C 243.019531 438.753906 250.175781 445.9375 258.976562 445.9375 L 445.28125 445.9375 C 454.082031 445.9375 461.128906 438.753906 461.128906 429.988281 " fill-opacity="1" fill-rule="nonzero"/></g><g clip-path="url(#id2)"><path fill="rgb(0%, 0%, 0%)" d="M 321.910156 514.832031 C 311.722656 514.832031 303.464844 506.578125 303.464844 496.398438 C 303.464844 486.214844 311.722656 477.960938 321.910156 477.960938 C 332.09375 477.960938 340.351562 486.214844 340.351562 496.398438 C 340.351562 506.578125 332.09375 514.832031 321.910156 514.832031 Z M 321.910156 468.574219 C 306.539062 468.574219 294.078125 481.027344 294.078125 496.398438 C 294.078125 511.761719 306.539062 524.214844 321.910156 524.214844 C 337.28125 524.214844 349.738281 511.761719 349.738281 496.398438 C 349.738281 481.027344 337.28125 468.574219 321.910156 468.574219 " fill-opacity="1" fill-rule="nonzero"/></g><g clip-path="url(#id3)"><path fill="rgb(0%, 0%, 0%)" d="M 492.371094 514.832031 C 482.1875 514.832031 473.929688 506.578125 473.929688 496.398438 C 473.929688 486.214844 482.1875 477.960938 492.371094 477.960938 C 502.558594 477.960938 510.816406 486.214844 510.816406 496.398438 C 510.816406 506.578125 502.558594 514.832031 492.371094 514.832031 Z M 492.371094 468.574219 C 477 468.574219 464.539062 481.027344 464.539062 496.398438 C 464.539062 511.761719 477 524.214844 492.371094 524.214844 C 507.746094 524.214844 520.203125 511.761719 520.203125 496.398438 C 520.203125 481.027344 507.746094 468.574219 492.371094 468.574219 " fill-opacity="1" fill-rule="nonzero"/></g><path fill="rgb(0%, 0%, 0%)" d="M 501.003906 356.574219 C 493.65625 357.984375 488.847656 365.078125 490.253906 372.421875 C 491.667969 379.765625 498.765625 384.574219 506.113281 383.164062 C 513.457031 381.753906 518.265625 374.660156 516.855469 367.316406 C 515.445312 359.972656 508.347656 355.164062 501.003906 356.574219 " fill-opacity="1" fill-rule="nonzero"/><path fill="rgb(0%, 0%, 0%)" d="M 507.214844 386.742188 C 504.539062 384.941406 496.265625 383.722656 496.242188 383.71875 C 490.105469 382.777344 489.351562 389.863281 488.96875 394.238281 C 488.914062 394.867188 488.800781 395.917969 488.648438 397.402344 C 489.476562 397.582031 490.335938 397.597656 491.222656 397.597656 L 512.289062 397.597656 C 511.121094 392.863281 509.496094 388.273438 507.214844 386.742188 " fill-opacity="1" fill-rule="nonzero"/><g clip-path="url(#id4)"><path fill="rgb(0%, 0%, 0%)" d="M 562.578125 461.792969 C 562.578125 463.929688 560.597656 465.542969 557.878906 465.542969 L 547.050781 465.542969 C 544.332031 465.542969 541.949219 463.929688 541.949219 461.792969 L 541.949219 455.613281 C 541.949219 453.476562 544.332031 451.683594 547.050781 451.683594 L 557.878906 451.683594 C 560.597656 451.683594 562.578125 453.476562 562.578125 455.613281 Z M 491.222656 399.625 C 484.9375 399.625 480.066406 394.722656 480.066406 388.796875 L 480.066406 363.324219 C 480.066406 357.398438 484.9375 352.976562 491.222656 352.976562 L 526.796875 352.976562 C 533.085938 352.976562 547.316406 389.039062 547.316406 389.039062 C 547.316406 394.960938 542.21875 399.625 535.929688 399.625 Z M 497.652344 412.957031 C 497.652344 413.761719 496.941406 414.5 496.078125 414.5 L 481.390625 414.5 C 480.527344 414.5 480.066406 413.761719 480.066406 412.957031 L 480.066406 411.53125 C 480.066406 410.726562 480.527344 410.105469 481.390625 410.105469 L 496.078125 410.105469 C 496.941406 410.105469 497.652344 410.726562 497.652344 411.53125 Z M 565.234375 410.699219 C 565.234375 405.824219 546.933594 361.753906 536.578125 346.300781 C 532.324219 339.964844 522.78125 340.976562 516.277344 340.976562 L 477.699219 340.976562 C 475.683594 340.976562 472.628906 341.386719 470.261719 342.097656 L 470.261719 442.5625 C 470.261719 448.488281 465.421875 453.375 459.5 453.375 L 275.144531 453.375 L 275.144531 473.9375 C 275.144531 479.863281 280.105469 485.148438 286.03125 485.148438 L 288.746094 485.148438 C 293.585938 471.289062 306.585938 461.683594 321.910156 461.683594 C 337.234375 461.683594 350.230469 471.289062 355.070312 485.148438 L 459.210938 485.148438 C 464.046875 471.289062 477.046875 461.574219 492.371094 461.574219 C 507.78125 461.574219 520.84375 471.628906 525.617188 485.148438 L 531.257812 485.148438 C 538.210938 485.148438 562.089844 486.171875 564.339844 474.738281 C 569.703125 447.476562 565.234375 410.699219 565.234375 410.699219 " fill-opacity="1" fill-rule="nonzero"/></g></svg>