<?xml version="1.0" encoding="utf-8"?><!DOCTYPE svg PUBLIC "-//W3C//DTD SVG 1.1//EN" "http://www.w3.org/Graphics/SVG/1.1/DTD/svg11.dtd"><svg xmlns="http://www.w3.org/2000/svg" xmlns:xlink="http://www.w3.org/1999/xlink"><symbol viewBox="0 -11 493.78 493" id="bill" xmlns="http://www.w3.org/2000/svg"><path d="M378.352 70.473c.214.015.43.03.648.03.371 0 .742-.03 1.105-.081 9.723.2 17.504 8.129 17.516 17.851a8 8 0 0 0 16 0c-.02-15.902-11.09-29.66-26.621-33.082v-7.687a8 8 0 0 0-16 0v8.05c-16.422 4.391-27.047 20.278-24.832 37.133 2.215 16.856 16.582 29.458 33.582 29.458 9.871 0 17.871 8.003 17.871 17.875 0 9.867-8 17.87-17.871 17.87s-17.871-8.003-17.871-17.87a8 8 0 0 0-16 0c.02 15.328 10.316 28.738 25.121 32.718v8.766a8 8 0 0 0 16 0v-8.399c16.895-3.699 28.29-19.535 26.426-36.73-1.86-17.195-16.38-30.227-33.676-30.223-9.598.004-17.484-7.574-17.863-17.164-.375-9.59 6.894-17.765 16.465-18.511zm0 0"/><path d="M380.207.39c-49.215 0-91.215 32.114-106.95 75.114H74.7c-4.398 0-7.969 3.965-8 8.36l-1.89 280.64H8.21c-4.418 0-8.211 3.2-8.211 7.625v35.613c.102 33.528 26.508 61.07 60 62.586v.176h247v-.234c2 .074 2.824.234 4.09.234h.172c34.664-.055 62.738-28.172 62.738-62.836V227.605c2 .11 4.117.168 6.188.168 62.628 0 113.593-51.062 113.593-113.695C493.781 51.45 442.84.391 380.207.391zM63.043 454.505h-.05c-25.88-.035-46.876-20.961-46.993-46.844v-27.156h232v27.043a62.758 62.758 0 0 0 18.523 44.469c.84.84 1.883 1.488 2.762 2.488zM358 407.66c.004 25.836-20.914 46.793-46.746 46.844h-.152c-25.938-.047-46.973-21.016-47.102-46.95V372.13a7.385 7.385 0 0 0-7.637-7.625H80.81l1.836-273h186.171a120.205 120.205 0 0 0-2.191 22.219 112.81 112.81 0 0 0 9.656 45.78H200.72c-4.422 0-8 3.583-8 8 0 4.419 3.578 8 8 8h84.242A112.897 112.897 0 0 0 358 225.606zm22.207-195.883c-53.89 0-97.582-43.687-97.578-97.582 0-53.894 43.687-97.582 97.582-97.582 53.89 0 97.578 43.692 97.578 97.582-.059 53.867-43.71 97.524-97.582 97.582zm0 0"/><path d="M149.367 212.746c-14.12 0-25.605 11.121-25.605 24.793 0 13.672 11.484 24.793 25.605 24.793s25.61-11.121 25.61-24.793c0-13.672-11.489-24.793-25.61-24.793zm0 33.586c-5.3 0-9.605-3.945-9.605-8.793 0-4.851 4.308-8.793 9.605-8.793 5.297 0 9.61 3.945 9.61 8.793 0 4.848-4.313 8.793-9.61 8.793zm0 0M192.719 237.504c0 4.418 3.578 8 8 8h106.656a8 8 0 0 0 0-16H200.719c-4.422 0-8 3.582-8 8zm0 0M149.367 143.203c-14.12 0-25.605 11.125-25.605 24.797s11.484 24.793 25.605 24.793 25.61-11.121 25.61-24.793-11.489-24.797-25.61-24.797zm0 33.59c-5.3 0-9.605-3.945-9.605-8.793s4.308-8.797 9.605-8.797c5.297 0 9.61 3.945 9.61 8.797 0 4.848-4.313 8.797-9.61 8.797zm0 0M149.367 282.281c-14.12 0-25.605 11.121-25.605 24.793s11.484 24.793 25.605 24.793 25.61-11.12 25.61-24.793-11.489-24.793-25.61-24.793zm0 33.586c-5.3 0-9.605-3.941-9.605-8.793 0-4.847 4.308-8.793 9.605-8.793 5.297 0 9.61 3.946 9.61 8.793 0 4.848-4.313 8.793-9.61 8.793zm0 0M307.375 299.504H200.719c-4.422 0-8 3.582-8 8s3.578 8 8 8h106.656a8 8 0 0 0 0-16zm0 0"/></symbol><symbol viewBox="0 0 47.971 47.971" id="close" xmlns="http://www.w3.org/2000/svg"><path d="M28.228 23.986L47.092 5.122a2.998 2.998 0 0 0 0-4.242 2.998 2.998 0 0 0-4.242 0L23.986 19.744 5.121.88a2.998 2.998 0 0 0-4.242 0 2.998 2.998 0 0 0 0 4.242l18.865 18.864L.879 42.85a2.998 2.998 0 1 0 4.242 4.241l18.865-18.864L42.85 47.091c.586.586 1.354.879 2.121.879s1.535-.293 2.121-.879a2.998 2.998 0 0 0 0-4.242L28.228 23.986z"/></symbol><symbol viewBox="0 0 810 810" id="delivering" xmlns="http://www.w3.org/2000/svg"><defs><clipPath id="aca"><path d="M243 285.707h219V446H243zm0 0"/></clipPath><clipPath id="acb"><path d="M294 468.45h55.742v55.757H294zm0 0"/></clipPath><clipPath id="acc"><path d="M464.375 468.45h56v55.757h-56zm0 0"/></clipPath><clipPath id="acd"><path d="M275.078 340.875H566.98v144.41H275.078zm0 0"/></clipPath></defs><g clip-path="url(#aca)"><path d="M255.195 429.988V301.746c0-1.976 1.77-3.531 3.782-3.531H445.28c2.008 0 3.676 1.555 3.676 3.531v128.242c0 1.977-1.668 3.442-3.676 3.442H258.977c-2.012 0-3.782-1.465-3.782-3.442zm205.934 0V301.746c0-8.766-7.047-16.039-15.848-16.039H258.977c-8.801 0-15.957 7.273-15.957 16.04v128.241c0 8.766 7.156 15.95 15.957 15.95H445.28c8.801 0 15.848-7.184 15.848-15.95"/></g><g clip-path="url(#acb)"><path d="M321.91 514.832c-10.187 0-18.445-8.254-18.445-18.434 0-10.183 8.258-18.437 18.445-18.437 10.184 0 18.442 8.254 18.442 18.437 0 10.18-8.258 18.434-18.442 18.434zm0-46.258c-15.37 0-27.832 12.453-27.832 27.824 0 15.364 12.461 27.817 27.832 27.817s27.828-12.453 27.828-27.817c0-15.37-12.457-27.824-27.828-27.824"/></g><g clip-path="url(#acc)"><path d="M492.371 514.832c-10.183 0-18.441-8.254-18.441-18.434 0-10.183 8.257-18.437 18.441-18.437 10.188 0 18.445 8.254 18.445 18.437 0 10.18-8.257 18.434-18.445 18.434zm0-46.258c-15.371 0-27.832 12.453-27.832 27.824 0 15.364 12.461 27.817 27.832 27.817 15.375 0 27.832-12.453 27.832-27.817 0-15.37-12.457-27.824-27.832-27.824"/></g><path d="M501.004 356.574c-7.348 1.41-12.156 8.504-10.75 15.848 1.414 7.344 8.512 12.152 15.86 10.742 7.343-1.41 12.152-8.504 10.741-15.848-1.41-7.343-8.507-12.152-15.851-10.742M507.215 386.742c-2.676-1.8-10.95-3.02-10.973-3.023-6.137-.942-6.89 6.144-7.273 10.52-.055.628-.168 1.679-.32 3.163.828.18 1.687.196 2.574.196h21.066c-1.168-4.735-2.793-9.325-5.074-10.856"/><g clip-path="url(#acd)"><path d="M562.578 461.793c0 2.137-1.98 3.75-4.7 3.75h-10.827c-2.719 0-5.102-1.613-5.102-3.75v-6.18c0-2.136 2.383-3.93 5.102-3.93h10.828c2.719 0 4.7 1.794 4.7 3.93zm-71.355-62.168c-6.286 0-11.157-4.902-11.157-10.828v-25.473c0-5.926 4.872-10.347 11.157-10.347h35.574c6.289 0 20.52 36.062 20.52 36.062 0 5.922-5.098 10.586-11.387 10.586zm6.43 13.332c0 .805-.712 1.543-1.575 1.543h-14.687c-.864 0-1.325-.738-1.325-1.543v-1.426c0-.804.461-1.426 1.325-1.426h14.687c.863 0 1.574.622 1.574 1.426zm67.581-2.258c0-4.875-18.3-48.945-28.656-64.398-4.254-6.336-13.797-5.324-20.3-5.324h-38.579c-2.015 0-5.07.41-7.437 1.12v100.466c0 5.925-4.84 10.812-10.762 10.812H275.145v20.563c0 5.925 4.96 11.21 10.886 11.21h2.715c4.84-13.859 17.84-23.464 33.164-23.464 15.324 0 28.32 9.605 33.16 23.464h104.14c4.837-13.859 17.837-23.574 33.161-23.574 15.41 0 28.473 10.055 33.246 23.574h5.64c6.954 0 30.833 1.024 33.083-10.41 5.363-27.261.894-64.039.894-64.039"/></g></symbol><symbol viewBox="0 0 810 810" id="economy" xmlns="http://www.w3.org/2000/svg"><defs><clipPath id="ada"><path d="M416 245.063h10V312h-10zm0 0"/></clipPath><clipPath id="adb"><path d="M244 414h322v151.313H244zm0 0"/></clipPath></defs><path d="M330.3 320.793c2.634 0 4.516-2.262 4.516-4.523v-35.415c0-2.636-2.257-4.523-4.515-4.523-2.258 0-4.516 2.262-4.516 4.523v35.415c-.379 2.636 1.88 4.523 4.516 4.523zm0 0M355.89 303.082c2.633 0 4.516-2.258 4.516-4.52v-43.328c0-2.636-2.258-4.52-4.515-4.52-2.258 0-4.516 2.259-4.516 4.52v43.328c-.379 2.637 1.879 4.52 4.516 4.52zm0 0M381.855 303.082c2.637 0 4.516-2.258 4.516-4.52v-22.23c0-2.637-2.258-4.52-4.516-4.52-2.257 0-4.515 2.262-4.515 4.52v22.23c0 2.637 1.883 4.52 4.515 4.52zm0 0"/><g clip-path="url(#ada)"><path d="M420.992 311.371c2.637 0 4.516-2.258 4.516-4.52v-57.269c0-2.637-2.258-4.52-4.516-4.52s-4.515 2.262-4.515 4.52v56.89c0 3.016 1.882 4.9 4.515 4.9zm0 0"/></g><path d="M377.715 424.777c31.238 0 56.45-25.242 56.45-56.511 0-31.274-25.212-56.516-56.45-56.516-31.235 0-56.445 25.242-56.445 56.516 0 31.27 25.21 56.511 56.445 56.511zm-19.945-42.949c0-2.637 2.261-4.523 4.52-4.523 2.257 0 4.515 2.261 4.515 4.523v3.39c0 3.391 2.632 6.028 6.02 6.028h8.655c3.387 0 6.02-2.637 6.02-6.027v-7.16c0-1.13-.375-3.012-3.008-4.145l-18.066-3.012c-5.645-1.886-9.406-7.16-9.406-12.812v-7.535c0-8.29 6.773-15.07 15.05-15.446v-3.39c0-2.637 2.258-4.524 4.516-4.524s4.516 2.262 4.516 4.524v3.011c8.28.38 15.054 7.16 15.054 15.45v3.39c0 2.637-2.258 4.52-4.515 4.52-2.258 0-4.516-2.258-4.516-4.52v-3.39c0-3.39-2.633-6.028-6.023-6.407h-8.653c-3.387 0-6.023 2.637-6.023 6.028v7.535c0 1.508 1.129 3.016 2.637 3.77l18.437 3.39c5.645 1.883 9.41 7.16 9.031 13.188v7.156c0 8.289-6.773 15.07-15.05 15.45v3.765c0 2.64-2.258 4.523-4.516 4.523s-4.516-2.262-4.516-4.523v-3.766c-8.281-.379-15.054-7.16-15.054-15.45zm0 0M519.215 534.418c0 2.637 2.258 4.898 4.89 4.898 2.637 0 4.895-2.261 4.895-4.898 0-2.637-2.258-4.898-4.895-4.898-2.632.375-4.89 2.261-4.89 4.898zm0 0"/><g clip-path="url(#adb)"><path d="M562.113 556.27h-59.457V452.28h49.676c2.633 0 4.516-2.258 4.516-4.52 0-2.261-2.258-4.523-4.516-4.523h-49.676v-15.07c0-2.637-2.258-4.52-4.515-4.52-2.258 0-4.516 2.262-4.516 4.52v15.07h-27.098c-2.632 0-4.515 1.887-4.515 4.524v13.562h-8.653l-27.472-24.113c-.754-.754-1.883-1.129-3.012-1.129h-74.887c-2.258 0-4.515 1.883-4.515 4.145 0 .375-.38 3.011-.38 3.011 0 6.785 2.259 13.188 6.024 18.465h-5.27s-20.699-32.027-21.449-33.156c-6.773-9.797-18.441-16.578-30.105-12.813l-7.527 2.641c-2.258 1.129-3.766 3.766-2.637 6.027l1.883 3.391c-10.535-5.652-24.086-6.406-32.739 2.262l-5.644 6.027c-1.508 2.262-1.133 5.273.75 6.781l67.363 46.344 105.746 39.559h42.149v7.535c0 2.636 1.883 4.52 4.515 4.52h26.72v19.968c0 2.64 2.257 4.524 4.515 4.524h63.976c2.633 0 4.516-2.262 4.516-4.524 0-2.258-1.508-4.52-3.766-4.52zM294.926 424.402c8.277-2.636 17.308 4.145 21.449 12.434l10.16 15.824-27.094-15.824-6.773-11.68zm167.086 94.946h-39.89l-103.864-38.43-62.094-42.953 1.504-1.508c6.398-6.402 17.312-4.144 24.84 1.133l40.265 23.36 15.805 9.417c.754.375 1.508.754 2.258.754h67.363c2.633 0 4.516-2.262 4.516-4.523 0-2.637-2.258-4.52-4.516-4.52h-42.902c-7.149-1.129-12.418-9.043-13.172-16.2h68.492l27.473 24.114c.75.75 1.879 1.13 3.012 1.13h10.535zm0 0"/></g></symbol><symbol viewBox="0 0 612.074 612.074" id="envelope" xmlns="http://www.w3.org/2000/svg"><path d="M612.074 132.141v-2.38c0-8.849-4.016-19.26-11.229-26.473l-.818-.818s-.818 0-.818-.818c-1.636-1.636-3.198-2.38-4.833-4.016-.818 0-.818-.818-1.636-.818-1.636-.818-4.016-1.636-5.652-2.38-.818 0-.818-.818-1.636-.818-2.38-.818-4.833-1.636-7.213-1.636h-1.636c-2.38 0-5.651-.818-8.849-.818H43.427c-3.198 0-6.395 0-9.667.818-.818 0-1.636 0-2.38.818-2.38.818-4.834.818-6.395 1.636-.818 0-.818.818-1.636.818-1.636.818-4.016 1.636-5.652 2.38l-.818.818c-1.636.818-3.198 2.38-4.834 3.198l-2.38 2.38C4.016 110.428.818 117.715 0 125.746V486.402c1.636 11.229 7.213 20.896 15.244 26.473 7.213 4.833 16.062 8.031 26.473 8.031h528.491c2.38 0 5.651 0 8.031-.818h1.636c2.38-.818 4.834-.818 6.395-1.636h.818c17.698-6.395 24.911-21.714 24.911-36.14V134.521v-1.636c.075.074.075.074.075-.744zm-51.384-11.228l-252.98 246.51-57.854-56.218L51.459 120.838H560.69v.075zM29.819 475.099V140.991l187.095 179.882L29.819 475.099zm269.86 16.806H56.292l182.336-149.393 58.597 57.036c2.38 2.38 4.834 3.198 7.213 4.016H309.346c2.38-.818 5.651-1.636 7.213-4.016l55.4-53.838 183.079 146.196H299.679zm282.65-16.062L394.417 324.07l187.912-183.08v334.853z"/></symbol><symbol viewBox="0 0 488.85 488.85" id="eye" xmlns="http://www.w3.org/2000/svg"><path d="M244.425 98.725c-93.4 0-178.1 51.1-240.6 134.1-5.1 6.8-5.1 16.3 0 23.1 62.5 83.1 147.2 134.2 240.6 134.2s178.1-51.1 240.6-134.1c5.1-6.8 5.1-16.3 0-23.1-62.5-83.1-147.2-134.2-240.6-134.2zm6.7 248.3c-62 3.9-113.2-47.2-109.3-109.3 3.2-51.2 44.7-92.7 95.9-95.9 62-3.9 113.2 47.2 109.3 109.3-3.3 51.1-44.8 92.6-95.9 95.9zm-3.1-47.4c-33.4 2.1-61-25.4-58.8-58.8 1.7-27.6 24.1-49.9 51.7-51.7 33.4-2.1 61 25.4 58.8 58.8-1.8 27.7-24.2 50-51.7 51.7z"/></symbol><symbol viewBox="0 0 810 810" id="facebook" xmlns="http://www.w3.org/2000/svg"><path d="M405 243.367c-89.383 0-162 72.617-162 162 0 81.14 59.848 148.293 137.793 160l8.457 1.281V438.992h-38.27v-25.914h38.27V378.66c0-21.191 5.086-35.152 13.508-43.906 8.418-8.758 20.86-13.176 38.168-13.176 13.844 0 19.226.84 24.347 1.469v21.21h-18.02c-10.222 0-18.612 5.708-22.968 13.305-4.351 7.598-5.707 16.672-5.707 25.918v29.582h45.086l-4.012 25.918h-41.074v127.872l8.356-1.137C505.988 554.992 567 487.3 567 405.367c0-89.383-72.617-162-162-162zm0 14.727c81.426 0 147.273 65.851 147.273 147.273 0 71.649-51.28 130.57-118.968 143.836v-95.496h38.976l8.555-55.371h-47.531V383.48c0-7.64 1.398-14.488 3.754-18.597 2.355-4.113 4.625-5.899 10.195-5.899h32.75v-49.273l-6.387-.86c-4.418-.597-14.5-2-32.691-2-19.903 0-36.988 5.422-48.785 17.688-11.793 12.27-17.618 30.535-17.618 54.121v19.692h-38.27v55.37h38.27v95.02c-66.597-14.105-116.796-72.504-116.796-143.375 0-81.422 65.847-147.273 147.273-147.273zm0 0"/></symbol><symbol viewBox="0 0 512 512" id="giftbox" xmlns="http://www.w3.org/2000/svg"><path d="M478.609 99.726H441.34c4.916-7.78 8.16-16.513 9.085-25.749C453.38 44.46 437.835 18 411.37 6.269c-24.326-10.783-51.663-6.375-71.348 11.479l-47.06 42.65c-9.165-10.024-22.34-16.324-36.962-16.324-14.648 0-27.844 6.32-37.011 16.375l-47.12-42.706C152.152-.111 124.826-4.502 100.511 6.275 74.053 18.007 58.505 44.476 61.469 73.992c.927 9.229 4.169 17.958 9.084 25.734H33.391C14.949 99.726 0 114.676 0 133.117v50.087c0 9.22 7.475 16.696 16.696 16.696h478.609c9.22 0 16.696-7.475 16.696-16.696v-50.087c-.001-18.441-14.95-33.391-33.392-33.391zm-272.696-5.565v5.565H127.37c-20.752 0-37.084-19.346-31.901-40.952 2.283-9.515 9.151-17.626 18.034-21.732 12.198-5.638 25.71-3.828 35.955 5.445l56.469 51.182c-.003.165-.014.327-.014.492zm211.381-24.617c-1.244 17.353-16.919 30.184-34.316 30.184h-76.891v-5.565c0-.197-.012-.392-.014-.589l55.594-50.391c8.554-7.753 20.523-11.372 31.587-8.072 15.877 4.736 25.201 18.238 24.04 34.433zM33.391 233.291v244.87c0 18.442 14.949 33.391 33.391 33.391h155.826V233.291H33.391zM289.391 233.291v278.261h155.826c18.442 0 33.391-14.949 33.391-33.391v-244.87H289.391z"/></symbol><symbol viewBox="0 0 460.298 460.297" id="home" xmlns="http://www.w3.org/2000/svg"><path d="M230.149 120.939L65.986 256.274c0 .191-.048.472-.144.855-.094.38-.144.656-.144.852v137.041c0 4.948 1.809 9.236 5.426 12.847 3.616 3.613 7.898 5.431 12.847 5.431h109.63V303.664h73.097v109.64h109.629c4.948 0 9.236-1.814 12.847-5.435 3.617-3.607 5.432-7.898 5.432-12.847V257.981c0-.76-.104-1.334-.288-1.707L230.149 120.939z"/><path d="M457.122 225.438L394.6 173.476V56.989c0-2.663-.856-4.853-2.574-6.567-1.704-1.712-3.894-2.568-6.563-2.568h-54.816c-2.666 0-4.855.856-6.57 2.568-1.711 1.714-2.566 3.905-2.566 6.567v55.673l-69.662-58.245c-6.084-4.949-13.318-7.423-21.694-7.423-8.375 0-15.608 2.474-21.698 7.423L3.172 225.438c-1.903 1.52-2.946 3.566-3.14 6.136-.193 2.568.472 4.811 1.997 6.713l17.701 21.128c1.525 1.712 3.521 2.759 5.996 3.142 2.285.192 4.57-.476 6.855-1.998L230.149 95.817l197.57 164.741c1.526 1.328 3.521 1.991 5.996 1.991h.858c2.471-.376 4.463-1.43 5.996-3.138l17.703-21.125c1.522-1.906 2.189-4.145 1.991-6.716-.195-2.563-1.242-4.609-3.141-6.132z"/></symbol><symbol viewBox="0 0 60 60" id="hourglass" xmlns="http://www.w3.org/2000/svg"><path d="M54 58h-3v-4h-5V43.778c0-2.7-1.342-5.208-3.589-6.706L31.803 30l10.608-7.072A8.045 8.045 0 0 0 46 16.222V6h5V2h3a1 1 0 1 0 0-2H6a1 1 0 1 0 0 2h3v4h5v10.222c0 2.7 1.342 5.208 3.589 6.706L28.197 30l-10.608 7.072A8.045 8.045 0 0 0 14 43.778V54H9v4H6a1 1 0 1 0 0 2h48a1 1 0 1 0 0-2zM11 4V2h38v2H11zm7.698 17.264A6.05 6.05 0 0 1 16 16.222V6h28v10.222a6.05 6.05 0 0 1-2.698 5.042L30 28.798l-11.302-7.534zM16 43.778a6.05 6.05 0 0 1 2.698-5.042L30 31.202l11.302 7.534A6.05 6.05 0 0 1 44 43.778V54H16V43.778zM11 56h38v2H11v-2z"/><path d="M20.917 17.936A2.057 2.057 0 0 1 20 16.222V14a1 1 0 1 0-2 0v2.222a4.05 4.05 0 0 0 1.808 3.378l4.638 3.092a1 1 0 1 0 1.11-1.664l-4.639-3.092zM40.192 41.26l-4.638-3.092a1 1 0 1 0-1.11 1.664l4.638 3.092c.575.383.918 1.023.918 1.714v2.222a1 1 0 1 0 2 0v-2.222a4.05 4.05 0 0 0-1.808-3.378z"/></symbol><symbol viewBox="0 0 810 810" id="instagramm" xmlns="http://www.w3.org/2000/svg"><path d="M404.93 272.21c43.234 0 48.343.145 65.453.927 15.758.707 24.347 3.336 30.097 5.605 7.528 2.91 12.922 6.461 18.602 12.14 5.68 5.68 9.156 11.075 12.14 18.602 2.2 5.676 4.825 14.266 5.606 30.098.781 17.11.922 22.219.922 65.453 0 43.235-.14 48.344-.922 65.453-.707 15.762-3.336 24.352-5.605 30.102-2.914 7.523-6.461 12.918-12.141 18.598s-11.074 9.16-18.602 12.14c-5.675 2.2-14.265 4.828-30.097 5.61-17.11.777-22.219.921-65.453.921-43.235 0-48.344-.144-65.453-.922-15.762-.71-24.352-3.34-30.102-5.609-7.523-2.91-12.918-6.46-18.598-12.14-5.68-5.68-9.16-11.075-12.14-18.598-2.2-5.68-4.828-14.27-5.61-30.102-.78-17.11-.922-22.218-.922-65.453 0-43.234.141-48.344.922-65.453.711-15.758 3.34-24.348 5.61-30.098 2.91-7.527 6.46-12.921 12.14-18.601 5.68-5.68 11.075-9.156 18.598-12.14 5.68-2.2 14.27-4.825 30.102-5.606 17.109-.782 22.218-.926 65.453-.926m0-29.176c-44.016 0-49.48.215-66.801.996-17.254.778-29.035 3.547-39.332 7.524-10.649 4.117-19.664 9.656-28.68 18.672-8.945 9.015-14.48 18.03-18.597 28.68-3.977 10.292-6.747 22.077-7.528 39.327-.777 17.25-.992 22.786-.992 66.73 0 44.016.215 49.481.992 66.802.781 17.25 3.551 29.035 7.528 39.328 4.117 10.648 9.652 19.664 18.667 28.68 9.016 9.015 18.036 14.554 28.684 18.671 10.293 3.977 22.078 6.746 39.328 7.524 17.25.781 22.785.996 66.801.996 44.016 0 49.48-.215 66.8-.996 17.25-.778 29.036-3.547 39.329-7.524 10.648-4.117 19.668-9.656 28.683-18.672 9.016-9.015 14.551-18.03 18.668-28.68 3.977-10.292 6.747-22.077 7.528-39.327.777-17.25.992-22.786.992-66.801 0-44.016-.215-49.48-.992-66.8-.781-17.255-3.551-29.036-7.528-39.333-4.117-10.648-9.652-19.664-18.668-28.68-9.019-9.015-18.035-14.55-28.683-18.668-10.293-3.976-22.078-6.746-39.328-7.527-17.32-.707-22.86-.922-66.871-.922"/><path d="M404.93 321.836c-45.93 0-83.13 37.2-83.13 83.129 0 45.93 37.27 83.2 83.2 83.2s83.2-37.2 83.2-83.2c-.071-45.93-37.34-83.13-83.27-83.13m0 137.153c-29.817 0-53.953-24.136-53.953-53.953 0-29.816 24.136-53.953 53.953-53.953 29.816 0 53.953 24.137 53.953 53.953.07 29.746-24.137 53.953-53.953 53.953M510.848 318.57c0 10.72-8.735 19.45-19.453 19.45-10.72 0-19.45-8.73-19.45-19.45 0-10.718 8.73-19.453 19.45-19.453 10.718 0 19.453 8.66 19.453 19.453"/></symbol><symbol viewBox="0 0 492 492" id="left-arrow" xmlns="http://www.w3.org/2000/svg"><path d="M198.608 246.104L382.664 62.04c5.068-5.056 7.856-11.816 7.856-19.024 0-7.212-2.788-13.968-7.856-19.032l-16.128-16.12C361.476 2.792 354.712 0 347.504 0s-13.964 2.792-19.028 7.864L109.328 227.008c-5.084 5.08-7.868 11.868-7.848 19.084-.02 7.248 2.76 14.028 7.848 19.112l218.944 218.932c5.064 5.072 11.82 7.864 19.032 7.864 7.208 0 13.964-2.792 19.032-7.864l16.124-16.12c10.492-10.492 10.492-27.572 0-38.06L198.608 246.104z"/></symbol><symbol viewBox="0 0 513.597 513.597" id="map" xmlns="http://www.w3.org/2000/svg"><path d="M263.278.107C158.977-3.408 73.323 80.095 73.323 183.602c0 117.469 112.73 202.72 175.915 325.322 3.208 6.225 12.169 6.233 15.388.009 57.16-110.317 154.854-184.291 172.959-290.569C456.331 108.387 374.776 3.866 263.278.107zm-6.355 279.666c-53.113 0-96.171-43.059-96.171-96.171s43.059-96.171 96.171-96.171c53.113 0 96.172 43.059 96.172 96.171s-43.059 96.171-96.172 96.171z"/></symbol><symbol id="mastercard" viewBox="0 0 2000 1556" xmlns="http://www.w3.org/2000/svg"><defs><style>.ancls-1{fill:#231f20}.ancls-2{fill:#f79410}.ancls-3{fill:#ff5f00}.ancls-4{fill:#eb001b}.ancls-5{fill:#f79e1b}</style></defs><path class="ancls-1" d="M1960.59 1534.9v4h3.73a3.93 3.93 0 0 0 2-.51 1.78 1.78 0 0 0 .75-1.53 1.71 1.71 0 0 0-.75-1.49 3.59 3.59 0 0 0-2-.51h-3.73zm3.77-2.83a6.92 6.92 0 0 1 4.48 1.3 4.3 4.3 0 0 1 1.57 3.54 4.06 4.06 0 0 1-1.26 3.11 6.14 6.14 0 0 1-3.58 1.49l5 5.7h-3.85l-4.6-5.66h-1.49v5.66h-3.22v-15.13h7zm-1 20.36a12 12 0 0 0 4.91-1 12.86 12.86 0 0 0 4-2.71 12.63 12.63 0 0 0 2.71-4 12.94 12.94 0 0 0 0-9.9 13.07 13.07 0 0 0-2.71-4 12.89 12.89 0 0 0-4-2.71 12.59 12.59 0 0 0-4.91-.94 13.12 13.12 0 0 0-5 .94 12.77 12.77 0 0 0-4.09 2.71 12.92 12.92 0 0 0-2.67 14 11.92 11.92 0 0 0 2.67 4 12.81 12.81 0 0 0 4.09 2.71 12.45 12.45 0 0 0 5 1m0-29a16.74 16.74 0 0 1 11.75 4.8 16 16 0 0 1 3.54 5.19 16.09 16.09 0 0 1 0 12.65 16.88 16.88 0 0 1-3.54 5.19 17.85 17.85 0 0 1-5.27 3.5 16.33 16.33 0 0 1-6.48 1.3 16.6 16.6 0 0 1-6.56-1.3 17.08 17.08 0 0 1-5.31-3.5 16.88 16.88 0 0 1-3.49-5.36 16.09 16.09 0 0 1 0-12.65 16 16 0 0 1 3.54-5.19 15.8 15.8 0 0 1 5.31-3.5 16.6 16.6 0 0 1 6.56-1.3M432.16 1465.1c0-28.85 18.9-52.55 49.79-52.55 29.52 0 49.44 22.68 49.44 52.55s-19.92 52.55-49.44 52.55c-30.89 0-49.79-23.7-49.79-52.55m132.88 0V1383h-35.69v20c-11.32-14.78-28.49-24.05-51.84-24.05-46 0-82.1 36.08-82.1 86.19s36.08 86.19 82.1 86.19c23.34 0 40.52-9.28 51.84-24.05v19.93H565v-82.11zm1205.92 0c0-28.85 18.9-52.55 49.8-52.55 29.55 0 49.44 22.68 49.44 52.55s-19.89 52.55-49.44 52.55c-30.89 0-49.8-23.7-49.8-52.55m132.92 0v-148h-35.72v85.9c-11.32-14.78-28.49-24.05-51.84-24.05-46 0-82.1 36.08-82.1 86.19s36.08 86.19 82.1 86.19c23.35 0 40.52-9.28 51.84-24.05v19.93h35.72v-82.11zM1008 1410.86c23 0 37.77 14.42 41.54 39.81h-85.16c3.81-23.7 18.2-39.81 43.63-39.81m.71-32c-48.1 0-81.75 35-81.75 86.19 0 52.19 35 86.19 84.14 86.19 24.72 0 47.36-6.17 67.28-23l-17.49-26.45c-13.76 11-31.28 17.17-47.75 17.17-23 0-43.94-10.65-49.09-40.2h121.87c.35-4.44.71-8.92.71-13.72-.36-51.17-32-86.19-77.94-86.19m430.9 86.19c0-28.85 18.9-52.55 49.79-52.55 29.52 0 49.44 22.68 49.44 52.55s-19.92 52.55-49.44 52.55c-30.89 0-49.8-23.7-49.8-52.55m132.88 0V1383h-35.67v20c-11.36-14.78-28.49-24.05-51.84-24.05-46 0-82.1 36.08-82.1 86.19s36.08 86.19 82.1 86.19c23.35 0 40.48-9.28 51.84-24.05v19.93h35.68v-82.11zm-334.42 0c0 49.79 34.66 86.19 87.56 86.19 24.72 0 41.19-5.5 59-19.57l-17.14-28.85c-13.4 9.63-27.47 14.78-43 14.78-28.49-.35-49.44-20.95-49.44-52.55s20.95-52.19 49.44-52.55c15.49 0 29.56 5.15 43 14.78l17.14-28.85c-17.84-14.07-34.31-19.57-59-19.57-52.9 0-87.56 36.39-87.56 86.19m460.1-86.19c-20.59 0-34 9.63-43.27 24.05V1383h-35.37v164.12h35.73v-92c0-27.16 11.67-42.25 35-42.25a57.87 57.87 0 0 1 22.32 4.13l11-33.64c-7.9-3.11-18.2-4.48-25.43-4.48m-956.64 17.17c-17.17-11.32-40.83-17.17-66.93-17.17-41.58 0-68.35 19.93-68.35 52.54 0 26.76 19.93 43.27 56.63 48.42l16.86 2.4c19.57 2.75 28.81 7.9 28.81 17.17 0 12.69-13 19.93-37.41 19.93-24.72 0-42.56-7.9-54.59-17.17L599.74 1530c19.57 14.42 44.29 21.3 71.06 21.3 47.4 0 74.87-22.32 74.87-53.57 0-28.85-21.62-43.94-57.34-49.09l-16.82-2.44c-15.45-2-27.83-5.11-27.83-16.11 0-12 11.67-19.22 31.25-19.22 20.95 0 41.23 7.9 51.17 14.07l15.45-28.85zm460.51-17.14c-20.59 0-34 9.63-43.23 24.05V1383h-35.37v164.12h35.69v-92c0-27.16 11.67-42.25 35-42.25a57.87 57.87 0 0 1 22.32 4.13l11-33.64c-7.9-3.11-18.2-4.48-25.43-4.48M897.44 1383h-58.36v-49.79H803V1383h-33.29v32.62H803v74.87c0 38.08 14.78 60.76 57 60.76 15.49 0 33.33-4.8 44.65-12.69L894.34 1508c-10.65 6.17-22.32 9.28-31.6 9.28-17.84 0-23.66-11-23.66-27.47v-74.16h58.36zm-533.59 164.16v-103c0-38.79-24.72-64.89-64.57-65.24-20.95-.35-42.56 6.17-57.69 29.2-11.32-18.2-29.16-29.2-54.24-29.2-17.53 0-34.66 5.15-48.07 24.37V1383h-35.72v164.12h36v-91c0-28.49 15.8-43.63 40.2-43.63 23.7 0 35.69 15.45 35.69 43.27v91.34h36.08v-91c0-28.49 16.47-43.63 40.16-43.63 24.37 0 36 15.45 36 43.27v91.34z"/><path class="ancls-2" d="M1980.94 1001.22v-24h-6.25l-7.23 16.47-7.19-16.47H1954v24h4.44v-18.08l6.76 15.6h4.6l6.76-15.64v18.12h4.4zm-39.65 0v-19.89h8v-4.05h-20.44v4.05h8v19.89h4.4z"/><path class="ancls-3" d="M1270.57 1104.15H729.71v-972h540.87z"/><path class="ancls-4" d="M764 618.17c0-197.17 92.32-372.81 236.08-486A615.46 615.46 0 0 0 618.09 0C276.72 0 0 276.76 0 618.17s276.72 618.17 618.09 618.17a615.46 615.46 0 0 0 382-132.17C856.34 991 764 815.35 764 618.17"/><path class="ancls-5" d="M2000.25 618.17c0 341.41-276.72 618.17-618.09 618.17a615.65 615.65 0 0 1-382.05-132.17c143.8-113.19 236.12-288.82 236.12-486s-92.32-372.81-236.12-486A615.65 615.65 0 0 1 1382.15 0c341.37 0 618.09 276.76 618.09 618.17"/></symbol><symbol viewBox="0 0 512.16 512.16" id="messenger" xmlns="http://www.w3.org/2000/svg"><path d="M256.24.08C96.99.08 0 120.47 0 240.4c0 70.88 37.58 127.19 91.88 172.76v83.92c0 5.37 2.87 10.33 7.53 13.01 2.31 1.33 4.89 1.99 7.47 1.99 2.61 0 5.22-.68 7.56-2.04l76.6-44.68c22.49 4.87 44.66 7.34 66 7.34 135.33 0 255.12-100.56 255.12-235.82C512.16 97.17 384.73.08 256.24.08zm.8 442.62c-20.89 0-42.77-2.65-65.03-7.88-3.74-.88-7.67-.29-10.99 1.65l-59.14 34.5v-64.89c0-4.53-2.05-8.81-5.57-11.66C58.23 347.44 30 297.06 30 240.4c0-103.38 84.63-210.32 226.24-210.32 109.11 0 225.92 83.1 225.92 206.8 0 113.49-100.99 205.82-225.12 205.82z"/><path d="M418.81 171.77c-4.49-5.86-12.58-7.59-19.07-4.06-34.4 18.7-68.89 35.36-102.15 53.07l-57.97-53.21c-6.02-5.53-15.36-5.22-21 .7-40.57 42.55-81.95 87.75-122.82 130.6a15.005 15.005 0 0 0-1.22 19.24 14.983 14.983 0 0 0 18.73 4.56c3.11-1.54 73.43-38.21 103.6-55.45 18.44 18.58 38.13 35.55 57.33 53.13 2.88 2.63 6.51 3.93 10.13 3.93 3.96 0 7.91-1.56 10.85-4.64l122.53-128.39a15.01 15.01 0 0 0 1.06-19.48zM283.62 288.34c-18.6-16.77-36.94-32.97-53.63-50.76a14.969 14.969 0 0 0-10.94-4.73c-4.21 0-8.18 1.75-11.03 4.83-5.96 3.58-16.39 9.37-28.48 15.94 16.64-17.82 33.76-36.15 50.65-53.98l54.96 50.46a15.013 15.013 0 0 0 17.31 2.13c10.24-5.57 20.69-11.04 31.45-16.59l-50.29 52.7z"/></symbol><symbol viewBox="0 0 491.858 491.858" id="minus" xmlns="http://www.w3.org/2000/svg"><path d="M465.167 211.613H26.69c-8.424 0-26.69 11.439-26.69 34.316s18.267 34.316 26.69 34.316H465.169c8.421 0 26.689-11.439 26.689-34.316s-18.268-34.316-26.691-34.316z"/></symbol><symbol viewBox="0 0 56.48 56.48" id="paypal" xmlns="http://www.w3.org/2000/svg"><path d="M12.121 24.861c-.229-.15-.57-.226-1.018-.226l-.383.002a.591.591 0 0 0-.557.444l-.353 1.52c-.055.246.102.447.356.447h.286c.635 0 1.127-.129 1.48-.389.353-.258.534-.625.526-1.1.002-.314-.111-.549-.337-.698zM18.371 28.364c-.069.002-.598.062-.866.095-.3.043-.56.103-.771.174l-.496.338c-.116.146-.171.332-.171.571l.226.438c.153.086.379.128.667.128.19 0 .396-.046.612-.134l.46-.237.182-.242c.072-.282.221-.909.238-.987l-.081-.144z"/><path d="M55.026 9.939H1.454C.65 9.939 0 10.59 0 11.393v33.694c0 .803.65 1.455 1.454 1.455h53.572c.804 0 1.454-.651 1.454-1.454V11.393c0-.803-.65-1.454-1.454-1.454zM13.484 27.695c-.796.586-1.904.878-3.336.88h-.334a.599.599 0 0 0-.561.444l-.402 1.738a.601.601 0 0 1-.562.446h-1.17c-.254 0-.413-.204-.353-.446l1.645-7.163a.614.614 0 0 1 .563-.447l2.444-.001c.528.005.985.037 1.381.109.39.074.73.198 1.018.374.276.174.499.407.639.689.156.282.225.635.225 1.055 0 .96-.395 1.736-1.197 2.322zm7.262-.914l-.044.301-.854 3.692a.605.605 0 0 1-.503.438l-.016.006H18.241l-.004-.004c-.223-.021-.361-.21-.313-.438v-.002l.002-.007.044-.188-.006-.007-.441.291-.48.268-.566.194a3.264 3.264 0 0 1-.735.067c-.499 0-.917-.137-1.233-.42a1.444 1.444 0 0 1-.476-1.11c0-.48.111-.886.334-1.224.231-.336.561-.598 1.007-.794a5.375 5.375 0 0 1 1.484-.408 19.83 19.83 0 0 1 1.727-.187l.168-.104.021-.165c0-.254-.118-.429-.353-.532-.238-.1-.596-.15-1.064-.15-.318-.004-.718.061-1.097.147-.397.09-.506.149-.7.207-.09.031-.307.046-.226-.33l.143-.589s.07-.445.515-.542c.215-.048.249-.057.6-.111.475-.073.945-.11 1.416-.11.953 0 1.651.124 2.092.373.443.248.669.636.667 1.157l-.021.281zm1.881 7.274l-1.212.002c-.252 0-.335-.2-.181-.446l1.037-1.808s.083-.103.009-.693c-.16-1.066-.956-5.598-.956-5.598-.058-.245.098-.446.35-.446l1.049-.002c.321 0 .579.211.637.459l.522 3.143.194.002c.163-.289 1.839-3.165 1.839-3.165.16-.242.484-.447.736-.447 0 0 1.127.003 1.404 0 .416-.006-.032.668-.032.668l-4.664 7.887c-.15.246-.482.444-.732.444zm12.117-6.329c-.799.583-1.912.878-3.344.878h-.334a.604.604 0 0 0-.562.443l-.396 1.741a.605.605 0 0 1-.562.44l-1.173.003c-.249.001-.413-.201-.353-.444l1.646-7.167a.612.612 0 0 1 .56-.445l2.447-.002c.525.002.987.039 1.375.108a2.89 2.89 0 0 1 1.019.373c.279.179.498.408.644.692.15.28.223.634.225 1.054 0 .959-.401 1.733-1.192 2.326zm7.258-.94l-.043.303-.856 3.689a.603.603 0 0 1-.499.44l-.016.006H39.5l-.002-.006a.34.34 0 0 1-.312-.438l-.002-.003.005-.004.039-.188-.007-.009-.438.295-.483.267-.565.191c-.174.045-.42.064-.733.069-.5 0-.914-.142-1.232-.423a1.434 1.434 0 0 1-.479-1.111c0-.477.111-.885.335-1.221.229-.336.564-.597 1.006-.795.418-.19.92-.328 1.487-.408a19.125 19.125 0 0 1 1.728-.186l.168-.106.018-.165a.535.535 0 0 0-.354-.531c-.238-.101-.596-.151-1.062-.151-.32-.002-.721.062-1.099.147-.395.092-.502.149-.695.207-.098.029-.309.046-.229-.33l.143-.588s.067-.446.514-.542c.217-.047.252-.058.602-.109a8.902 8.902 0 0 1 1.416-.113c.949 0 1.646.126 2.091.375.446.248.669.634.669 1.155l-.027.283zm3.75-3.107l-1.568 7.101-.055.084c-.093.2-.291.362-.506.362h-1.088l-.02-.025c-.207-.032-.342-.199-.293-.417l-.002-.005.047-.205 1.466-6.662.052-.232.059-.091c.095-.196.289-.355.504-.355h1.047c.255 0 .408.199.354.443l.003.002zm2.078-.768h-.392v.521l.003.14.027.094.062.06.12.019.098-.014.073-.022h.009v.171l-.117.023-.111.009-.266-.095-.091-.3v-.606h-.132v-.162h.132v-.325h.193v.325h.392v.162zm1.895.239v.737h-.189v-.65l-.012-.139-.025-.11-.066-.065-.127-.023-.159.041-.163.103.003.056.002.06v.729h-.19v-.65l-.008-.141-.027-.109-.064-.065-.129-.023-.157.039-.159.099v.85h-.188V22.75h.188v.127l.182-.116.188-.042.198.047.122.136.21-.141.205-.042.277.113.09.318h-.002z"/><path d="M39.628 28.37c-.069-.001-.596.061-.86.095a4.233 4.233 0 0 0-.771.174 1.188 1.188 0 0 0-.501.338c-.112.146-.168.332-.168.572l.229.437c.146.087.369.129.666.129.187 0 .393-.046.608-.133l.457-.237.188-.242c.07-.285.222-.91.234-.988l-.082-.145zM33.372 24.888c-.231-.151-.567-.225-1.016-.227l-.381.002a.599.599 0 0 0-.56.445l-.354 1.519c-.057.244.106.448.359.446h.291c.633 0 1.124-.13 1.478-.384.35-.261.528-.625.526-1.104-.006-.312-.115-.547-.343-.697z"/></symbol><symbol viewBox="0 0 482.14 482.14" id="pdf" xmlns="http://www.w3.org/2000/svg"><path d="M142.024 310.194c0-8.007-5.556-12.782-15.359-12.782-4.003 0-6.714.395-8.132.773v25.69c1.679.378 3.743.504 6.588.504 10.449 0 16.903-5.279 16.903-14.185zM202.709 297.681c-4.39 0-7.227.379-8.905.772v56.896c1.679.394 4.39.394 6.841.394 17.809.126 29.424-9.677 29.424-30.449.126-18.063-10.458-27.613-27.36-27.613z"/><path d="M315.458 0H121.811c-28.29 0-51.315 23.041-51.315 51.315v189.754h-5.012c-11.418 0-20.678 9.251-20.678 20.679v125.404c0 11.427 9.259 20.677 20.678 20.677h5.012v22.995c0 28.305 23.025 51.315 51.315 51.315h264.223c28.272 0 51.3-23.011 51.3-51.315V121.449L315.458 0zM99.053 284.379c6.06-1.024 14.578-1.796 26.579-1.796 12.128 0 20.772 2.315 26.58 6.965 5.548 4.382 9.292 11.615 9.292 20.127 0 8.51-2.837 15.745-7.999 20.646-6.714 6.32-16.643 9.157-28.258 9.157-2.585 0-4.902-.128-6.714-.379v31.096h-19.48v-85.816zm286.981 166.334H121.811c-10.954 0-19.874-8.92-19.874-19.889v-22.995h246.31c11.42 0 20.679-9.25 20.679-20.677V261.748c0-11.428-9.259-20.679-20.679-20.679h-246.31V51.315c0-10.938 8.921-19.858 19.874-19.858l181.89-.19V98.5c0 19.638 15.934 35.587 35.587 35.587l65.862-.189.741 296.925c0 10.97-8.904 19.89-19.857 19.89zm-211.969-80.912v-85.422c7.225-1.15 16.642-1.796 26.58-1.796 16.516 0 27.226 2.963 35.618 9.282 9.031 6.714 14.704 17.416 14.704 32.781 0 16.643-6.06 28.133-14.453 35.224-9.157 7.612-23.096 11.222-40.125 11.222-10.198 0-17.423-.646-22.324-1.291zm140.827-50.575v15.996h-31.23v34.973h-19.74v-86.966h53.16v16.122h-33.42v19.875h31.23z"/></symbol><symbol viewBox="0 0 320.648 320.648" id="percent" xmlns="http://www.w3.org/2000/svg"><path d="M139.219 124.494c12.369-13.416 19.184-31.412 19.184-50.678C158.403 37.134 132.202 0 82.116 0 58.807 0 39.143 8.006 25.247 23.152 12.938 36.57 6.161 54.562 6.161 73.816c0 36.686 26.09 73.818 75.955 73.818 23.396.001 43.146-7.999 57.103-23.14zM82.116 34.322c27.443 0 39.941 20.486 39.941 39.52 0 10.354-3.484 19.939-9.816 26.986-7.064 7.871-17.33 12.033-29.68 12.033-28.137 0-40.955-20.484-40.955-39.516 0-19.421 12.528-39.023 40.51-39.023zM264.274 28.476c-4.539.082-10.736 2.912-13.772 6.287L25.186 285.275c-3.035 3.377-.885 8.111 3.654 8.111h29.49c4.539 0 10.73-2.768 13.76-6.148L296.013 36.777c3.029-3.383 2.828-8.887-4.672-8.885l-27.067.584zM239.647 175.822c-22.859 0-42.15 7.858-55.783 22.715-12.074 13.158-18.726 30.811-18.726 49.699 0 35.984 25.594 72.412 74.51 72.412 22.957 0 42.326-7.85 56.02-22.701 12.135-13.162 18.818-30.816 18.818-49.711-.001-35.984-25.706-72.414-74.839-72.414zm.442 111.596c-27.375 0-39.848-20.557-39.848-39.648 0-10.397 3.482-20.018 9.809-27.092 7.053-7.894 17.287-12.066 29.598-12.066 27.377 0 39.844 20.553 39.844 39.65 0 10.395-3.483 20.018-9.805 27.092-7.055 7.892-17.29 12.064-29.598 12.064z"/></symbol><symbol viewBox="0 0 473.806 473.806" id="phone" xmlns="http://www.w3.org/2000/svg"><path d="M374.456 293.506c-9.7-10.1-21.4-15.5-33.8-15.5-12.3 0-24.1 5.3-34.2 15.4l-31.6 31.5c-2.6-1.4-5.2-2.7-7.7-4-3.6-1.8-7-3.5-9.9-5.3-29.6-18.8-56.5-43.3-82.3-75-12.5-15.8-20.9-29.1-27-42.6 8.2-7.5 15.8-15.3 23.2-22.8 2.8-2.8 5.6-5.7 8.4-8.5 21-21 21-48.2 0-69.2l-27.3-27.3c-3.1-3.1-6.3-6.3-9.3-9.5-6-6.2-12.3-12.6-18.8-18.6-9.7-9.6-21.3-14.7-33.5-14.7s-24 5.1-34 14.7l-.2.2-34 34.3c-12.8 12.8-20.1 28.4-21.7 46.5-2.4 29.2 6.2 56.4 12.8 74.2 16.2 43.7 40.4 84.2 76.5 127.6 43.8 52.3 96.5 93.6 156.7 122.7 23 10.9 53.7 23.8 88 26 2.1.1 4.3.2 6.3.2 23.1 0 42.5-8.3 57.7-24.8.1-.2.3-.3.4-.5 5.2-6.3 11.2-12 17.5-18.1 4.3-4.1 8.7-8.4 13-12.9 9.9-10.3 15.1-22.3 15.1-34.6 0-12.4-5.3-24.3-15.4-34.3l-54.9-55.1zm35.8 105.3c-.1 0-.1.1 0 0-3.9 4.2-7.9 8-12.2 12.2-6.5 6.2-13.1 12.7-19.3 20-10.1 10.8-22 15.9-37.6 15.9-1.5 0-3.1 0-4.6-.1-29.7-1.9-57.3-13.5-78-23.4-56.6-27.4-106.3-66.3-147.6-115.6-34.1-41.1-56.9-79.1-72-119.9-9.3-24.9-12.7-44.3-11.2-62.6 1-11.7 5.5-21.4 13.8-29.7l34.1-34.1c4.9-4.6 10.1-7.1 15.2-7.1 6.3 0 11.4 3.8 14.6 7l.3.3c6.1 5.7 11.9 11.6 18 17.9 3.1 3.2 6.3 6.4 9.5 9.7l27.3 27.3c10.6 10.6 10.6 20.4 0 31-2.9 2.9-5.7 5.8-8.6 8.6-8.4 8.6-16.4 16.6-25.1 24.4-.2.2-.4.3-.5.5-8.6 8.6-7 17-5.2 22.7l.3.9c7.1 17.2 17.1 33.4 32.3 52.7l.1.1c27.6 34 56.7 60.5 88.8 80.8 4.1 2.6 8.3 4.7 12.3 6.7 3.6 1.8 7 3.5 9.9 5.3.4.2.8.5 1.2.7 3.4 1.7 6.6 2.5 9.9 2.5 8.3 0 13.5-5.2 15.2-6.9l34.2-34.2c3.4-3.4 8.8-7.5 15.1-7.5 6.2 0 11.3 3.9 14.4 7.3l.2.2 55.1 55.1c10.3 10.2 10.3 20.7.1 31.3zM256.056 112.706c26.2 4.4 50 16.8 69 35.8s31.3 42.8 35.8 69c1.1 6.6 6.8 11.2 13.3 11.2.8 0 1.5-.1 2.3-.2 7.4-1.2 12.3-8.2 11.1-15.6-5.4-31.7-20.4-60.6-43.3-83.5s-51.8-37.9-83.5-43.3c-7.4-1.2-14.3 3.7-15.6 11s3.5 14.4 10.9 15.6zM473.256 209.006c-8.9-52.2-33.5-99.7-71.3-137.5s-85.3-62.4-137.5-71.3c-7.3-1.3-14.2 3.7-15.5 11-1.2 7.4 3.7 14.3 11.1 15.6 46.6 7.9 89.1 30 122.9 63.7 33.8 33.8 55.8 76.3 63.7 122.9 1.1 6.6 6.8 11.2 13.3 11.2.8 0 1.5-.1 2.3-.2 7.3-1.1 12.3-8.1 11-15.4z"/></symbol><symbol viewBox="0 0 810 810" id="plannet" xmlns="http://www.w3.org/2000/svg"><path d="M298.668 498.797a10.351 10.351 0 0 1 5.973 9.351v13.301h-.227c-3.73 0-6.75 3.02-6.75 6.75v32.051a6.75 6.75 0 0 0 6.75 6.75 6.747 6.747 0 0 0 6.75-6.75v-25.3c101.813.007 62.953.003 72.117.003.012 0 .02-.004.031-.004h.211v25.301a6.75 6.75 0 0 0 6.75 6.75 6.75 6.75 0 0 0 6.75-6.75V528.2c0-3.731-3.02-6.75-6.75-6.75h-.242l.004-20.759c0-10.718-1.726-20.433-5.129-28.87-6.847-16.977-18.039-27.333-33.273-30.786-4.621-1.05-9.235-3.777-13.348-7.898l-33.95-33.942c-5.51-5.511-13.78-7.687-21.12-5.906v-71.96c0-11.106-8.98-20.11-20.102-20.11h-.023c-11.078.011-20.09 9.031-20.09 20.11V424.78c0 8.27 1.86 16.598 5.523 24.399 10.36 21.925 28.653 39.625 50.145 49.617zM256.5 321.328a6.616 6.616 0 0 1 6.605-6.61h.008a6.6 6.6 0 0 1 6.602 6.61v81.649c-5.508 8.636-4.492 20.261 3.039 27.8l42.605 42.598a6.745 6.745 0 0 0 9.543 0 6.75 6.75 0 0 0 0-9.547l-42.601-42.598a8.841 8.841 0 0 1 0-12.488c3.328-3.332 9.148-3.344 12.492 0l33.941 33.938c5.918 5.922 12.801 9.906 19.914 11.52 10.809 2.448 18.575 9.866 23.735 22.671 2.758 6.824 4.152 14.84 4.152 23.82l-.004 20.758h-58.39v-13.3c0-9.231-5.414-17.708-13.797-21.602a74.785 74.785 0 0 1-2.625-1.281c-18.016-9.168-32.57-24.036-41.125-42.141a43.449 43.449 0 0 1-4.094-18.344zm0 0M546.887 301.219c-11.086 0-20.102 9.02-20.102 20.11v71.96c-7.332-1.785-15.61.399-21.12 5.906l-33.958 33.946c-4.105 4.117-8.719 6.843-13.332 7.894-15.242 3.453-26.434 13.809-33.285 30.785-3.399 8.438-5.125 18.153-5.125 28.871l.004 20.758h-.242c-3.73 0-6.75 3.02-6.75 6.75v32.051a6.75 6.75 0 0 0 6.75 6.75 6.75 6.75 0 0 0 6.75-6.75v-25.3h.21c.012 0 .02.003.032.003 9.168 0-29.696.004 72.117-.004v25.301a6.747 6.747 0 0 0 6.75 6.75 6.75 6.75 0 0 0 6.75-6.75V528.2c0-3.731-3.02-6.75-6.75-6.75h-.234v-13.302c0-3.996 2.347-7.668 5.972-9.347C539.258 485.805 567 455.434 567 424.78V321.328c0-11.09-9.023-20.11-20.113-20.11zM553.5 424.78c0 24.692-24.445 51.004-47.852 61.77-8.375 3.89-13.796 12.367-13.796 21.597v13.301h-58.383l-.004-20.758c0-8.98 1.394-16.996 4.152-23.82 5.16-12.805 12.926-20.223 23.742-22.672 7.106-1.613 13.989-5.597 19.903-11.515l33.945-33.942c3.441-3.449 9.05-3.441 12.492 0 .184.188.364.383.528.578.054.059.097.121.144.176 2.758 3.465 2.531 8.531-.672 11.734l-42.601 42.598a6.75 6.75 0 0 0 0 9.547 6.745 6.745 0 0 0 9.543 0l42.605-42.598c7.531-7.539 8.547-19.164 3.04-27.8v-81.649c0-3.644 2.956-6.61 6.6-6.61 3.65 0 6.614 2.966 6.614 6.61zm0 0"/><path d="M383.559 381.176c-16.309-16.309-44.61-13.278-45.82-13.153a6.75 6.75 0 0 0-5.934 5.938c-.137 1.2-3.172 29.496 13.152 45.816 11.75 11.758 29.676 13.504 39.273 13.504 1.25 0 2.297-.031 3.235-.074l10.832 10.828v26.59a6.75 6.75 0 0 0 6.75 6.75 6.75 6.75 0 0 0 6.75-6.75v-26.68l10.738-10.738c.938.043 1.98.074 3.235.074 9.597 0 27.523-1.746 39.273-13.504 16.324-16.32 13.289-44.617 13.152-45.816a6.75 6.75 0 0 0-5.933-5.938c-1.219-.128-29.504-3.171-45.82 13.153-13.235 13.238-13.782 34.273-13.434 42.469l-1.211 1.21v-53.578c32.277-3.414 57.512-30.789 57.512-63.953 0-35.469-28.86-64.324-64.329-64.324-35.472 0-64.324 28.855-64.324 64.324 0 33.211 25.301 60.621 57.64 63.973v53.652l-1.304-1.304c.348-8.192-.199-29.23-13.433-42.47zM354.5 410.234c-8.047-8.05-9.426-21.398-9.5-28.988 7.613.086 21.016 1.48 29.012 9.477 5.023 5.023 7.453 12.09 8.593 18.539l-4.804-4.801a6.745 6.745 0 0 0-9.543 0 6.745 6.745 0 0 0 0 9.543l4.836 4.836c-6.465-1.137-13.555-3.57-18.594-8.606zm81.488-19.511c8.047-8.051 21.399-9.426 28.992-9.496-.093 7.605-1.484 21.011-9.48 29.007-5.04 5.04-12.137 7.473-18.605 8.61l4.84-4.84a6.745 6.745 0 0 0 0-9.543 6.745 6.745 0 0 0-9.544 0l-4.757 4.754c1.148-6.457 3.574-13.512 8.554-18.492zm-42.761-55.91a158.48 158.48 0 0 0 23.433.003c-3.34 15.27-8.87 23.332-11.68 23.332-2.91 0-8.453-7.906-11.753-23.336zm-39.07-27.489c0-2.914 7.906-8.457 23.34-11.758a157.419 157.419 0 0 0-.005 23.434c-15.27-3.34-23.336-8.867-23.336-11.676zm37.034-13.793a149.99 149.99 0 0 1 27.559 0c.852 8.91.91 18.043.004 27.559-8.977.855-18.11.902-27.563 0a149.99 149.99 0 0 1 0-27.559zm13.79-37.031c2.808 0 8.34 8.063 11.68 23.328a157.986 157.986 0 0 0-23.434.008c3.3-15.43 8.843-23.336 11.753-23.336zm50.828 50.824c0 2.809-8.063 8.34-23.332 11.676.562-7.594.593-15.375-.004-23.434 15.43 3.301 23.336 8.844 23.336 11.758zm-31.153 46.856c2.668-6.04 4.696-13.266 6.07-21.114 7.848-1.375 15.075-3.402 21.118-6.07-5.156 12.227-14.957 22.031-27.188 27.184zm27.188-66.532c-6.043-2.664-13.27-4.695-21.117-6.07-1.375-7.848-3.403-15.07-6.07-21.11a51.117 51.117 0 0 1 27.187 27.18zm-66.535-27.183c-2.664 6.043-4.692 13.265-6.07 21.113-7.848 1.379-15.071 3.406-21.114 6.07a51.117 51.117 0 0 1 27.184-27.183zm-27.184 66.531c6.043 2.668 13.266 4.695 21.113 6.07 1.38 7.848 3.407 15.075 6.07 21.118a51.137 51.137 0 0 1-27.183-27.188zm0 0"/></symbol><symbol viewBox="0 0 90 90" id="play" xmlns="http://www.w3.org/2000/svg"><path d="M90 26.958C90 19.525 83.979 13.5 76.55 13.5h-63.1C6.021 13.5 0 19.525 0 26.958v36.084C0 70.475 6.021 76.5 13.45 76.5h63.1C83.979 76.5 90 70.475 90 63.042V26.958zM36 60.225V26.33l25.702 16.947L36 60.225z"/></symbol><symbol viewBox="0 0 491.86 491.86" id="plus" xmlns="http://www.w3.org/2000/svg"><path d="M465.167 211.614H280.245V26.691c0-8.424-11.439-26.69-34.316-26.69s-34.316 18.267-34.316 26.69v184.924H26.69C18.267 211.614 0 223.053 0 245.929s18.267 34.316 26.69 34.316h184.924v184.924c0 8.422 11.438 26.69 34.316 26.69s34.316-18.268 34.316-26.69V280.245H465.17c8.422 0 26.69-11.438 26.69-34.316s-18.27-34.315-26.693-34.315z"/></symbol><symbol viewBox="0 0 31.357 31.357" id="question" xmlns="http://www.w3.org/2000/svg"><path d="M15.255 0c5.424 0 10.764 2.498 10.764 8.473 0 5.51-6.314 7.629-7.67 9.62-1.018 1.481-.678 3.562-3.475 3.562-1.822 0-2.712-1.482-2.712-2.838 0-5.046 7.414-6.188 7.414-10.343 0-2.287-1.522-3.643-4.066-3.643-5.424 0-3.306 5.592-7.414 5.592-1.483 0-2.756-.89-2.756-2.584C5.339 3.683 10.084 0 15.255 0zm-.211 24.406a3.492 3.492 0 0 1 3.475 3.476 3.49 3.49 0 0 1-3.475 3.476 3.49 3.49 0 0 1-3.476-3.476 3.491 3.491 0 0 1 3.476-3.476z"/></symbol><symbol viewBox="0 0 492.004 492.004" id="right-arrow" xmlns="http://www.w3.org/2000/svg"><path d="M382.678 226.804L163.73 7.86C158.666 2.792 151.906 0 144.698 0s-13.968 2.792-19.032 7.86l-16.124 16.12c-10.492 10.504-10.492 27.576 0 38.064L293.398 245.9l-184.06 184.06c-5.064 5.068-7.86 11.824-7.86 19.028 0 7.212 2.796 13.968 7.86 19.04l16.124 16.116c5.068 5.068 11.824 7.86 19.032 7.86s13.968-2.792 19.032-7.86L382.678 265c5.076-5.084 7.864-11.872 7.848-19.088.016-7.244-2.772-14.028-7.848-19.108z"/></symbol><symbol viewBox="-29 0 487 487.719" id="save-money" xmlns="http://www.w3.org/2000/svg"><path d="M220.867 266.176a7.616 7.616 0 0 0-2.742-.094c-9.16-1.066-16.07-8.816-16.086-18.035a8 8 0 0 0-16 0c.024 15.394 10.32 28.879 25.164 32.953v8a8 8 0 0 0 16 0v-7.516c17.133-3.586 28.777-19.543 26.977-36.953-1.805-17.41-16.473-30.64-33.977-30.644-10.031 0-18.164-8.133-18.164-18.164s8.133-18.164 18.164-18.164 18.164 8.132 18.164 18.164a8 8 0 0 0 16 0c-.023-16.164-11.347-30.106-27.164-33.442V155a8 8 0 0 0-16 0v7.77c-16.508 4.507-27.133 20.535-24.86 37.496s16.747 29.62 33.86 29.617c9.899 0 17.973 7.926 18.152 17.82.184 9.895-7.597 18.113-17.488 18.473zm0 0"/><path d="M104.195 222.5c0 64.07 51.938 116.008 116.008 116.008S336.211 286.57 336.211 222.5s-51.938-116.008-116.008-116.008c-64.039.07-115.933 51.969-116.008 116.008zm116.008-100.008c55.234 0 100.008 44.774 100.008 100.008s-44.774 100.008-100.008 100.008S120.195 277.734 120.195 222.5c.063-55.207 44.801-99.945 100.008-100.008zm0 0"/><path d="M375.648 358.23l-62.668 29.61a51.043 51.043 0 0 0-43.515-26.852l-57.852-1.59a61.1 61.1 0 0 1-26.293-6.789l-5.886-3.05a103.833 103.833 0 0 0-96.176.101l.367-13.336a8 8 0 0 0-7.777-8.219L12.41 326.36a7.997 7.997 0 0 0-8.215 7.778L.363 473.347a8 8 0 0 0 7.778 8.22l63.437 1.746h.219a8 8 0 0 0 8-7.782l.183-6.66 16.48-8.824a28.269 28.269 0 0 1 21.099-2.309l98.414 27.621c.172.051.343.09.52.13a105.348 105.348 0 0 0 21.628 2.23 106.739 106.739 0 0 0 44.59-9.73 7.43 7.43 0 0 0 .992-.548l142.692-92.296a8.004 8.004 0 0 0 2.62-10.657c-10.593-18.797-34.09-25.957-53.367-16.258zM16.578 465.793l3.39-123.219 47.442 1.305-3.39 123.223zm258.926-2.094a90.704 90.704 0 0 1-55.469 6.192l-98.148-27.551a44.236 44.236 0 0 0-32.977 3.605l-8.422 4.512 2.254-81.926a87.938 87.938 0 0 1 89.336-4.765l5.887 3.05a77.267 77.267 0 0 0 33.21 8.579l57.856 1.59c16.25.468 30.051 12.038 33.348 27.96l-86.176-2.379c-4.418-.12-8.094 3.364-8.219 7.778a8.003 8.003 0 0 0 7.778 8.219l95.101 2.617h.223a8 8 0 0 0 7.992-7.782 50.772 50.772 0 0 0-.773-10.378l64.277-30.372c.063-.027.125-.058.188-.09a24.443 24.443 0 0 1 27.64 3.872zm0 0M228.203 84V8a8 8 0 0 0-16 0v76a8 8 0 0 0 16 0zm0 0M288.203 84V48a8 8 0 0 0-16 0v36a8 8 0 0 0 16 0zm0 0M168.203 84V48a8 8 0 0 0-16 0v36a8 8 0 0 0 16 0zm0 0"/></symbol><symbol viewBox="0 0 56.966 56.966" id="search" xmlns="http://www.w3.org/2000/svg"><path d="M55.146 51.887L41.588 37.786A22.926 22.926 0 0 0 46.984 23c0-12.682-10.318-23-23-23s-23 10.318-23 23 10.318 23 23 23c4.761 0 9.298-1.436 13.177-4.162l13.661 14.208c.571.593 1.339.92 2.162.92.779 0 1.518-.297 2.079-.837a3.004 3.004 0 0 0 .083-4.242zM23.984 6c9.374 0 17 7.626 17 17s-7.626 17-17 17-17-7.626-17-17 7.626-17 17-17z"/></symbol><symbol viewBox="0 0 19.25 19.25" id="shopping-cart" xmlns="http://www.w3.org/2000/svg"><path d="M19.006 2.97a1.003 1.003 0 0 0-.756-.345H4.431l-.195-1.164A1 1 0 0 0 3.25.625H1a1 1 0 1 0 0 2h1.403l1.86 11.164c.008.045.031.082.045.124.016.053.029.103.054.151a.982.982 0 0 0 .12.179c.031.039.059.078.095.112a.96.96 0 0 0 .193.13c.038.021.071.049.112.065a.97.97 0 0 0 .367.075H16.25a1 1 0 1 0 0-2H6.097l-.166-1H17.25a1 1 0 0 0 .99-.858l1-7a1.002 1.002 0 0 0-.234-.797zm-1.909 1.655l-.285 2H13.25v-2h3.847zm-4.847 0v2h-3v-2h3zm0 3v2h-3v-2h3zm-4-3v2h-3a.481.481 0 0 0-.148.03l-.338-2.03H8.25zm-2.986 3H8.25v2H5.597l-.333-2zm7.986 2v-2h3.418l-.285 2H13.25z"/><circle cx="6.75" cy="17.125" r="1.5"/><circle cx="15.75" cy="17.125" r="1.5"/></symbol><symbol viewBox="0 0 422.692 422.692" id="support" xmlns="http://www.w3.org/2000/svg"><path d="M271.786 289.626v-7.36c2.08-1.68 4.08-3.52 6-5.44a109.36 109.36 0 0 0 27.68-60.96 53.762 53.762 0 0 0 34.72-20.64c11.6-16.4 12.64-40 2.96-69.6a8.002 8.002 0 0 0-3.2-4.16l-4.4-2.96a108.478 108.478 0 0 0-25.92-73.04c-21.52-24.24-54.56-36.48-98.32-36.64-43.68 0-76.8 12.4-98.32 36.32a108.478 108.478 0 0 0-25.92 73.04l-4.4 2.96a8.002 8.002 0 0 0-3.2 4.16c-9.68 29.76-8.64 53.2 2.96 69.6a53.918 53.918 0 0 0 34.72 20.88 109.44 109.44 0 0 0 27.76 61.04 78.037 78.037 0 0 0 6 5.44v7.36c-30.64 5.92-152.96 34.64-150.88 116.24a8 8 0 0 0 8 8h406.64a8 8 0 0 0 8-8c2.08-81.6-120.24-110.32-150.88-116.24zm-159.44-91.68a34.72 34.72 0 0 1-16.96-12.4l.4.08c-8-11.68-8.72-29.36-1.6-52.72l5.84-3.92a8 8 0 0 0 3.52-7.44 94.558 94.558 0 0 1 21.76-65.84c18.08-20.48 47.12-30.72 86-30.88 38.88-.16 67.92 10.4 86.32 30.88a94.558 94.558 0 0 1 21.76 65.84 8 8 0 0 0 3.52 7.44l5.84 3.92c7.12 23.28 6.64 41.04-1.6 52.72a34.886 34.886 0 0 1-17.04 12.4 53.277 53.277 0 0 0 13.04-40 37.441 37.441 0 0 0-12.88-22.4c-3.44-80-59.52-88.96-83.68-88.96-5.114-.015-10.222.36-15.28 1.12a100.705 100.705 0 0 0-15.28-1.12c-24 0-80 8.8-83.68 88.96a37.44 37.44 0 0 0-13.04 22.32 53.2 53.2 0 0 0 13.04 40zm182-65.6a164.805 164.805 0 0 1-95.6-24 8 8 0 0 0-10.4 1.04c-16 17.2-45.2 21.2-59.28 22.08 4.32-56.56 38.56-68.88 67.36-68.88a77.331 77.331 0 0 1 13.68 1.12 7.982 7.982 0 0 0 3.2 0 77.71 77.71 0 0 1 13.68-1.12c28.56 0 62.96 12.64 66.96 69.68l.4.08zm-162.48 67.12l.32.08a7.997 7.997 0 0 0-2-5.36c-10.96-12.56-16-24-14.64-33.44a21.2 21.2 0 0 1 7.28-13.52c10.56 0 48-2 72-22.72a180.395 180.395 0 0 0 88.8 24c5.36 0 10.8 0 16.48-.88a21.118 21.118 0 0 1 7.2 13.12c1.36 9.28-3.68 20.88-14.64 33.44a7.997 7.997 0 0 0-2 5.36v4.16l-46.56 24.96c-9.24-8.748-23.823-8.349-32.571.891-8.748 9.24-8.349 23.823.891 32.571 9.24 8.748 23.823 8.349 32.571-.891a23.039 23.039 0 0 0 6.309-15.851c.036-.72.036-1.44 0-2.16l36.72-19.68a88.007 88.007 0 0 1-21.44 42.24 71.28 71.28 0 0 1-53.04 19.84h-4a71.44 71.44 0 0 1-52.96-19.76c-25.28-25.2-24.72-66-24.72-66.4zm103.44 45.92a7.12 7.12 0 1 1-14.24 0 7.12 7.12 0 0 1 14.24 0zm-32 152H16.266c6.32-60.08 104-85.2 134.56-91.68v14.32c0 18.16 22.08 32 52.48 34.32v43.04zm-36.48-77.36V292.426a96.721 96.721 0 0 0 42.48 8.96h4a96.721 96.721 0 0 0 42.48-8.96v27.6c0 7.6-17.36 18.56-44.48 18.56s-44.48-10.96-44.48-18.56zm52.48 77.6v-43.36c30.4-2.08 52.48-16 52.48-34.32v-14c30.8 6.4 128 31.52 134.56 91.68h-187.04z"/></symbol><symbol viewBox="0 0 300 300" id="telegram" xmlns="http://www.w3.org/2000/svg"><path d="M5.299 144.645l69.126 25.8 26.756 86.047c1.712 5.511 8.451 7.548 12.924 3.891l38.532-31.412a11.496 11.496 0 0 1 14.013-.391l69.498 50.457c4.785 3.478 11.564.856 12.764-4.926L299.823 29.22c1.31-6.316-4.896-11.585-10.91-9.259L5.218 129.402c-7.001 2.7-6.94 12.612.081 15.243zm91.57 12.066l135.098-83.207c2.428-1.491 4.926 1.792 2.841 3.726L123.313 180.87a23.112 23.112 0 0 0-7.163 13.829l-3.798 28.146c-.503 3.758-5.782 4.131-6.819.494l-14.607-51.325c-1.673-5.854.765-12.107 5.943-15.303z"/></symbol><symbol viewBox="0 0 487.189 487.189" id="upload-folder" xmlns="http://www.w3.org/2000/svg"><path d="M470.766 201.645H328.514c-.679 12.523-5.831 23.854-14.075 32.277h140.188v107.525l-16.752-58.983a16.14 16.14 0 0 0-15.525-11.726H80.981v-89.762h98.881v-32.277H64.843c-8.92 0-16.139 7.225-16.139 16.139v105.9H16.427A16.132 16.132 0 0 0 .903 291.29l46.049 162.18a27.62 27.62 0 0 0 26.574 20.075l385.762-.065c15.253-.003 27.615-12.368 27.615-27.62V217.783c0-8.912-7.216-16.138-16.137-16.138zM486.902 487.174v-.14c-.066.128-.074.185 0 .14z"/><path d="M179.373 101.74h32.766v97.171c0 9.865 7.975 17.848 17.824 17.848h48.699c9.867 0 17.857-7.982 17.857-17.848V101.74h32.75c5.404 0 10.305-3.27 12.387-8.282a13.39 13.39 0 0 0-2.914-14.594L263.783 3.931A13.311 13.311 0 0 0 254.313 0c-3.42 0-6.855 1.314-9.473 3.931l-74.924 74.934a13.326 13.326 0 0 0-2.898 14.594c2.08 5.012 6.949 8.281 12.355 8.281z"/></symbol><symbol viewBox="0 0 47.834 47.834" id="visa" xmlns="http://www.w3.org/2000/svg"><path d="M19.153 16.799l-2.431 14.266h3.888l2.433-14.266zM13.462 16.815l-3.808 9.729-.406-1.469c-.751-1.77-2.883-4.312-5.386-5.914l3.482 11.897 4.114-.007 6.123-14.239-4.119.003z"/><path d="M7.772 17.836c-.226-.869-.881-1.128-1.694-1.159H.05l-.05.284c4.691 1.138 7.795 3.88 9.083 7.177l-1.311-6.302zM30.923 19.534a7.178 7.178 0 0 1 2.91.546l.351.165.526-3.092c-.77-.289-1.977-.599-3.483-.599-3.842 0-6.55 1.935-6.571 4.708-.025 2.049 1.929 3.193 3.405 3.876 1.515.7 2.023 1.145 2.016 1.77-.012.955-1.208 1.393-2.325 1.393-1.557 0-2.384-.215-3.661-.747l-.501-.228-.547 3.193c.91.399 2.589.742 4.332.76 4.087 0 6.743-1.912 6.771-4.875.017-1.621-1.02-2.858-3.267-3.873-1.36-.662-2.192-1.102-2.184-1.77 0-.593.706-1.227 2.228-1.227zM44.688 16.815h-3.004c-.933 0-1.627.254-2.037 1.184l-5.773 13.074h4.083s.666-1.758.817-2.143l4.979.006c.116.498.474 2.137.474 2.137h3.607l-3.146-14.258zm-4.795 9.195c.32-.819 1.549-3.987 1.549-3.987-.021.039.317-.825.518-1.362l.262 1.23.901 4.119h-3.23z"/></symbol><symbol viewBox="0 0 548.358 548.358" id="vk" xmlns="http://www.w3.org/2000/svg"><path d="M545.451 400.298c-.664-1.431-1.283-2.618-1.858-3.569-9.514-17.135-27.695-38.167-54.532-63.102l-.567-.571-.284-.28-.287-.287h-.288c-12.18-11.611-19.893-19.418-23.123-23.415-5.91-7.614-7.234-15.321-4.004-23.13 2.282-5.9 10.854-18.36 25.696-37.397 7.807-10.089 13.99-18.175 18.556-24.267 32.931-43.78 47.208-71.756 42.828-83.939l-1.701-2.847c-1.143-1.714-4.093-3.282-8.846-4.712-4.764-1.427-10.853-1.663-18.278-.712l-82.224.568c-1.332-.472-3.234-.428-5.712.144l-3.713.859-1.431.715-1.136.859c-.952.568-1.999 1.567-3.142 2.995-1.137 1.423-2.088 3.093-2.848 4.996-8.952 23.031-19.13 44.444-30.553 64.238-7.043 11.803-13.511 22.032-19.418 30.693-5.899 8.658-10.848 15.037-14.842 19.126-4 4.093-7.61 7.372-10.852 9.849-3.237 2.478-5.708 3.525-7.419 3.142-1.715-.383-3.33-.763-4.859-1.143-2.663-1.714-4.805-4.045-6.42-6.995-1.622-2.95-2.714-6.663-3.285-11.136-.568-4.476-.904-8.326-1-11.563-.089-3.233-.048-7.806.145-13.706.198-5.903.287-9.897.287-11.991 0-7.234.141-15.085.424-23.555.288-8.47.521-15.181.716-20.125.194-4.949.284-10.185.284-15.705s-.336-9.849-1-12.991a44.442 44.442 0 0 0-2.99-9.137c-1.335-2.95-3.289-5.232-5.853-6.852-2.569-1.618-5.763-2.902-9.564-3.856-10.089-2.283-22.936-3.518-38.547-3.71-35.401-.38-58.148 1.906-68.236 6.855-3.997 2.091-7.614 4.948-10.848 8.562-3.427 4.189-3.905 6.475-1.431 6.851 11.422 1.711 19.508 5.804 24.267 12.275l1.715 3.429c1.334 2.474 2.666 6.854 3.999 13.134 1.331 6.28 2.19 13.227 2.568 20.837.95 13.897.95 25.793 0 35.689-.953 9.9-1.853 17.607-2.712 23.127-.859 5.52-2.143 9.993-3.855 13.418-1.715 3.426-2.856 5.52-3.428 6.28-.571.76-1.047 1.239-1.425 1.427a21.387 21.387 0 0 1-7.71 1.431c-2.667 0-5.901-1.334-9.707-4-3.805-2.666-7.754-6.328-11.847-10.992-4.093-4.665-8.709-11.184-13.85-19.558-5.137-8.374-10.467-18.271-15.987-29.691l-4.567-8.282c-2.855-5.328-6.755-13.086-11.704-23.267-4.952-10.185-9.329-20.037-13.134-29.554-1.521-3.997-3.806-7.04-6.851-9.134l-1.429-.859c-.95-.76-2.475-1.567-4.567-2.427a30.301 30.301 0 0 0-6.567-1.854l-78.229.568c-7.994 0-13.418 1.811-16.274 5.428l-1.143 1.711c-.571.953-.859 2.475-.859 4.57 0 2.094.571 4.664 1.714 7.707 11.42 26.84 23.839 52.725 37.257 77.659 13.418 24.934 25.078 45.019 34.973 60.237 9.897 15.229 19.985 29.602 30.264 43.112 10.279 13.515 17.083 22.176 20.412 25.981 3.333 3.812 5.951 6.662 7.854 8.565l7.139 6.851c4.568 4.569 11.276 10.041 20.127 16.416 8.853 6.379 18.654 12.659 29.408 18.85 10.756 6.181 23.269 11.225 37.546 15.126 14.275 3.905 28.169 5.472 41.684 4.716h32.834c6.659-.575 11.704-2.669 15.133-6.283l1.136-1.431c.764-1.136 1.479-2.901 2.139-5.276.668-2.379 1-5 1-7.851-.195-8.183.428-15.558 1.852-22.124 1.423-6.564 3.045-11.513 4.859-14.846 1.813-3.33 3.859-6.14 6.136-8.418 2.282-2.283 3.908-3.666 4.862-4.142.948-.479 1.705-.804 2.276-.999 4.568-1.522 9.944-.048 16.136 4.429 6.187 4.473 11.99 9.996 17.418 16.56 5.425 6.57 11.943 13.941 19.555 22.124 7.617 8.186 14.277 14.271 19.985 18.274l5.708 3.426c3.812 2.286 8.761 4.38 14.853 6.283 6.081 1.902 11.409 2.378 15.984 1.427l73.087-1.14c7.229 0 12.854-1.197 16.844-3.572 3.998-2.379 6.373-5 7.139-7.851.764-2.854.805-6.092.145-9.712-.677-3.611-1.344-6.136-2.008-7.563z"/></symbol><symbol viewBox="0 0 810 810" id="whatsapp" xmlns="http://www.w3.org/2000/svg"><path d="M405.191 243c-89.199 0-161.812 72.55-161.843 161.746-.016 28.512 7.453 56.348 21.609 80.875L243 567l84.766-20.027c23.636 12.894 50.242 19.664 77.328 19.68h.062c89.184 0 161.762-72.567 161.813-161.747.031-43.238-16.782-83.89-47.336-114.476-30.551-30.57-71.156-47.414-114.442-47.43zm-.035 32.398c34.606.02 67.125 13.508 91.57 37.938 24.446 24.465 37.876 56.965 37.84 91.539-.03 71.344-58.062 129.375-129.441 129.375-21.594-.016-42.984-5.438-61.824-15.723l-10.918-5.949-12.055 2.848-31.89 7.531 7.78-28.922 3.512-12.973-6.707-11.64c-11.308-19.57-17.293-41.945-17.277-64.676.035-71.312 58.082-129.348 129.41-129.348zm-57.234 54.676c-2.707 0-7.082 1.012-10.793 5.063-3.707 4.035-14.172 13.804-14.172 33.699 0 19.89 14.488 39.121 16.516 41.828 2.007 2.688 27.972 44.8 69.07 61.004 34.148 13.46 41.086 10.805 48.504 10.125 7.422-.664 23.937-9.762 27.308-19.207 3.368-9.445 3.375-17.57 2.372-19.238-1.004-1.684-3.7-2.688-7.75-4.715-4.036-2.024-23.914-11.785-27.625-13.13-3.707-1.343-6.422-2.026-9.11 2.024-2.691 4.051-10.418 13.133-12.785 15.82-2.363 2.708-4.715 3.071-8.762 1.044-4.05-2.04-17.074-6.32-32.527-20.09-12.02-10.707-20.133-23.922-22.496-27.969-2.352-4.035-.223-6.25 1.8-8.258 1.817-1.816 4.02-4.722 6.044-7.09 2.011-2.363 2.707-4.05 4.05-6.738 1.348-2.691.657-5.062-.347-7.09-1.004-2.023-8.871-21.992-12.465-29.992-3.031-6.723-6.23-6.879-9.113-6.992-2.348-.098-5.032-.098-7.72-.098zm0 0"/></symbol></svg>